<svg id="visual" viewBox="0 0 900 600" width="900" height="600" xmlns="http://www.w3.org/2000/svg" xmlns:xlink="http://www.w3.org/1999/xlink" version="1.1"><rect x="0" y="0" width="900" height="600" fill="#001220"></rect><path d="M0 371L37.5 369.2C75 367.3 150 363.7 225 354.2C300 344.7 375 329.3 450 320.5C525 311.7 600 309.3 675 313.7C750 318 825 329 862.5 334.5L900 340L900 601L862.5 601C825 601 750 601 675 601C600 601 525 601 450 601C375 601 300 601 225 601C150 601 75 601 37.5 601L0 601Z" fill="#f7770f"></path><path d="M0 507L37.5 490.5C75 474 150 441 225 438.5C300 436 375 464 450 474.3C525 484.7 600 477.3 675 479.2C750 481 825 492 862.5 497.5L900 503L900 601L862.5 601C825 601 750 601 675 601C600 601 525 601 450 601C375 601 300 601 225 601C150 601 75 601 37.5 601L0 601Z" fill="#2441c7"></path></svg>