<svg viewBox="0 0 247.67 48.35" xmlns="http://www.w3.org/2000/svg"><path d="m0 0h247.67v48.35h-247.67z" fill="#fff"/><path d="m1.27 1.27h68.73v45.82h-68.73z" fill="#f05c22"/><path d="m70 1.27h176.41v45.82h-176.41z" fill="#1c4a9e"/><g fill="#fff"><path d="m131.28 40 .59-4.42h.84l-.62 4.71a2.6 2.6 0 0 1 -.49 1.27 2 2 0 0 1 -.8.62 2.14 2.14 0 0 1 -.8.16 1.54 1.54 0 0 1 -1.07-.36 1.49 1.49 0 0 1 -.43-1.08l.85-.2a1 1 0 0 0 .22.59.67.67 0 0 0 .54.21 1 1 0 0 0 .65-.22 1.36 1.36 0 0 0 .36-.56 3.29 3.29 0 0 0 .16-.72z" fill-rule="evenodd"/><path d="m134.11 35.53h.89l-.53 4a2.44 2.44 0 0 0 0 .85 1.41 1.41 0 0 0 .39.73 1.33 1.33 0 0 0 .9.3 1.61 1.61 0 0 0 1-.3 1.89 1.89 0 0 0 .59-.73 2.59 2.59 0 0 0 .26-.85l.54-4h.84l-.55 4.18a3.47 3.47 0 0 1 -.5 1.35 2.9 2.9 0 0 1 -1 .9 2.57 2.57 0 0 1 -1.28.33 2.09 2.09 0 0 1 -1.18-.33 1.88 1.88 0 0 1 -.74-.9 2.69 2.69 0 0 1 -.15-1.35z" fill-rule="evenodd"/><path d="m139.47 42.12.87-6.59h1.11l2.71 5.42h.02l.72-5.42h.84l-.87 6.59h-1.08l-2.74-5.42h-.02l-.72 5.42z" fill-rule="evenodd"/><path d="m147.75 42.12.77-5.76h-2.01l.11-.83h4.86l-.12.83h-2l-.76 5.76z" fill-rule="evenodd"/><path d="m154.42 42.29a3 3 0 0 1 -1.63-.46 2.65 2.65 0 0 1 -1-1.24 3.51 3.51 0 0 1 -.19-1.76 4 4 0 0 1 .66-1.77 4 4 0 0 1 1.3-1.24 3.46 3.46 0 0 1 1.75-.46 2.86 2.86 0 0 1 1.62.46 2.67 2.67 0 0 1 1 1.24 3.62 3.62 0 0 1 .18 1.77 4.25 4.25 0 0 1 -.65 1.76 4 4 0 0 1 -1.31 1.24 3.53 3.53 0 0 1 -1.73.46zm.11-.84a2.41 2.41 0 0 0 1.29-.36 2.91 2.91 0 0 0 .94-.94 3.35 3.35 0 0 0 .46-1.32 2.76 2.76 0 0 0 -.11-1.33 1.9 1.9 0 0 0 -1.89-1.3 2.41 2.41 0 0 0 -1.29.36 2.79 2.79 0 0 0 -.93.94 3.3 3.3 0 0 0 -.47 1.33 2.63 2.63 0 0 0 .12 1.32 1.92 1.92 0 0 0 .68.94 1.94 1.94 0 0 0 1.2.36z" fill-rule="evenodd"/><path d="m158.4 41.37.77-.63a1.21 1.21 0 0 0 .52.53 1.41 1.41 0 0 0 .71.17 1.54 1.54 0 0 0 .58-.12 1.5 1.5 0 0 0 .53-.37 1 1 0 0 0 .27-.61.69.69 0 0 0 -.23-.66 2.06 2.06 0 0 0 -.71-.36 7 7 0 0 1 -.84-.32 1.57 1.57 0 0 1 -.68-.62 1.8 1.8 0 0 1 -.17-1.17 2 2 0 0 1 .33-.82 2.33 2.33 0 0 1 .77-.72 2.66 2.66 0 0 1 1.26-.3 2.46 2.46 0 0 1 .95.15 1.53 1.53 0 0 1 .74.6l-.77.67a1 1 0 0 0 -.4-.42 1.19 1.19 0 0 0 -.64-.16 1.54 1.54 0 0 0 -.75.17 1.17 1.17 0 0 0 -.43.39 1 1 0 0 0 -.16.44.79.79 0 0 0 .22.73 2 2 0 0 0 .71.38c.29.1.58.2.87.32a1.38 1.38 0 0 1 .86 1.62 2.35 2.35 0 0 1 -.44 1.1 2.39 2.39 0 0 1 -.87.7 2.62 2.62 0 0 1 -1.12.24 2.65 2.65 0 0 1 -1.11-.22 1.57 1.57 0 0 1 -.77-.71z" fill-rule="evenodd"/><path d="m164.91 41.06-1.04 2.29h-.73l.91-2.29z" fill-rule="evenodd"/><path d="m168.14 41.37.78-.63a1.14 1.14 0 0 0 .51.53 1.47 1.47 0 0 0 .72.17 1.54 1.54 0 0 0 .58-.12 1.46 1.46 0 0 0 .52-.37 1.12 1.12 0 0 0 .28-.61.71.71 0 0 0 -.23-.66 2.06 2.06 0 0 0 -.71-.36 7.81 7.81 0 0 1 -.87-.34 1.62 1.62 0 0 1 -.68-.62 1.87 1.87 0 0 1 -.16-1.17 2 2 0 0 1 .32-.82 2.37 2.37 0 0 1 .78-.72 2.66 2.66 0 0 1 1.26-.3 2.46 2.46 0 0 1 .95.15 1.53 1.53 0 0 1 .74.6l-.77.67a1 1 0 0 0 -.4-.42 1.18 1.18 0 0 0 -.63-.16 1.5 1.5 0 0 0 -.76.17 1.17 1.17 0 0 0 -.43.39 1.21 1.21 0 0 0 -.17.44.79.79 0 0 0 .23.73 1.92 1.92 0 0 0 .71.38c.29.1.58.2.87.32a1.61 1.61 0 0 1 .69.55 1.58 1.58 0 0 1 .17 1.07 2.25 2.25 0 0 1 -.44 1.1 2.39 2.39 0 0 1 -.87.7 2.62 2.62 0 0 1 -1.12.24 2.65 2.65 0 0 1 -1.11-.22 1.64 1.64 0 0 1 -.76-.69z" fill-rule="evenodd"/><path d="m176.35 42.29a2.91 2.91 0 0 1 -1.62-.46 2.67 2.67 0 0 1 -1-1.24 3.62 3.62 0 0 1 -.18-1.76 4.14 4.14 0 0 1 .65-1.77 3.88 3.88 0 0 1 1.31-1.24 3.45 3.45 0 0 1 1.74-.46 2.87 2.87 0 0 1 1.63.46 2.65 2.65 0 0 1 1 1.24 3.51 3.51 0 0 1 .19 1.77 4.26 4.26 0 0 1 -.66 1.76 3.85 3.85 0 0 1 -1.3 1.24 3.6 3.6 0 0 1 -1.76.46zm.11-.84a2.36 2.36 0 0 0 1.29-.36 2.82 2.82 0 0 0 .94-.94 3.22 3.22 0 0 0 .47-1.32 2.89 2.89 0 0 0 -.16-1.33 1.93 1.93 0 0 0 -.69-.94 1.91 1.91 0 0 0 -1.19-.36 2.36 2.36 0 0 0 -1.29.36 2.91 2.91 0 0 0 -.94.94 3.46 3.46 0 0 0 -.47 1.33 2.87 2.87 0 0 0 .12 1.32 1.9 1.9 0 0 0 1.88 1.3z" fill-rule="evenodd"/><path d="m180.68 42.12.88-6.59h1.25l1.32 4.99h.04l2.62-4.99h1.25l-.87 6.59h-.85l.73-5.42h-.02l-2.82 5.42h-.56l-1.39-5.42h-.01l-.72 5.42z" fill-rule="evenodd"/><path d="m191.62 42.29a2.89 2.89 0 0 1 -1.62-.46 2.61 2.61 0 0 1 -1-1.24 3.51 3.51 0 0 1 -.19-1.76 4.29 4.29 0 0 1 .66-1.77 4 4 0 0 1 1.3-1.24 3.49 3.49 0 0 1 1.75-.46 2.81 2.81 0 0 1 1.62.46 2.61 2.61 0 0 1 1 1.24 3.62 3.62 0 0 1 .19 1.77 4.41 4.41 0 0 1 -.66 1.76 4 4 0 0 1 -1.3 1.24 3.6 3.6 0 0 1 -1.75.46zm.11-.84a2.36 2.36 0 0 0 1.29-.36 2.82 2.82 0 0 0 .94-.94 3.53 3.53 0 0 0 .47-1.32 2.89 2.89 0 0 0 -.12-1.33 1.9 1.9 0 0 0 -1.88-1.3 2.36 2.36 0 0 0 -1.29.36 2.82 2.82 0 0 0 -.94.94 3.46 3.46 0 0 0 -.47 1.33 2.87 2.87 0 0 0 .12 1.32 1.93 1.93 0 0 0 .69.94 1.91 1.91 0 0 0 1.19.36z" fill-rule="evenodd"/><path d="m195.6 41.37.77-.63a1.21 1.21 0 0 0 .52.53 1.43 1.43 0 0 0 .71.17 1.63 1.63 0 0 0 .59-.12 1.55 1.55 0 0 0 .52-.37 1 1 0 0 0 .27-.61.71.71 0 0 0 -.22-.66 2.21 2.21 0 0 0 -.72-.36 7 7 0 0 1 -.86-.34 1.57 1.57 0 0 1 -.68-.62 1.8 1.8 0 0 1 -.17-1.17 2.14 2.14 0 0 1 .33-.82 2.27 2.27 0 0 1 .78-.72 2.59 2.59 0 0 1 1.25-.3 2.55 2.55 0 0 1 1 .15 1.51 1.51 0 0 1 .73.6l-.77.67a1 1 0 0 0 -.4-.42 1.18 1.18 0 0 0 -.63-.16 1.49 1.49 0 0 0 -.75.17 1 1 0 0 0 -.43.39 1.05 1.05 0 0 0 -.17.44.81.81 0 0 0 .22.73 2.09 2.09 0 0 0 .71.38c.29.1.58.2.87.32a1.5 1.5 0 0 1 .69.55 1.57 1.57 0 0 1 .18 1.07 2.36 2.36 0 0 1 -.45 1.1 2.44 2.44 0 0 1 -.86.7 2.66 2.66 0 0 1 -1.13.24 2.6 2.6 0 0 1 -1.1-.22 1.6 1.6 0 0 1 -.8-.69z" fill-rule="evenodd"/><path d="m203.32 42.12.87-6.59h.85l-.77 5.75h2.86l-.11.84z" fill-rule="evenodd"/><path d="m208.64 35.15 1.1-1.34h1.12l-1.49 1.34zm-.76 7 .87-6.59h.84l-.87 6.59z" fill-rule="evenodd"/><path d="m210.17 42.12.88-6.59h2.17a3.23 3.23 0 0 1 1.57.34 2.15 2.15 0 0 1 .89.85 2.85 2.85 0 0 1 .37 1.07 3.62 3.62 0 0 1 0 1 3.81 3.81 0 0 1 -.6 1.6 3.72 3.72 0 0 1 -1.31 1.21 4 4 0 0 1 -1.94.48zm1.61-5.76-.65 4.92h1.06a3.39 3.39 0 0 0 1.35-.27 2.67 2.67 0 0 0 1.06-.82 2.73 2.73 0 0 0 .55-1.36 2.59 2.59 0 0 0 0-.74 2.2 2.2 0 0 0 -.26-.81 1.69 1.69 0 0 0 -.65-.65 2.54 2.54 0 0 0 -1.2-.27z" fill-rule="evenodd"/><path d="m216.82 42.12.88-6.59h4.02l-.12.83h-3.17l-.26 1.97h2.95l-.11.84h-2.95l-.28 2.11h3.33l-.11.84z" fill-rule="evenodd"/><path d="m222.18 42.12.88-6.59h2.19a2 2 0 0 1 1.18.29 1.27 1.27 0 0 1 .52.7 2 2 0 0 1 .05.85 2 2 0 0 1 -.29.8 2.15 2.15 0 0 1 -.61.63 1.93 1.93 0 0 1 -.86.31l1.37 3h-1.06l-1.19-2.9h-.94l-.39 2.9zm1.62-5.81-.28 2.12h1.11a2.36 2.36 0 0 0 .65-.07 1.15 1.15 0 0 0 .54-.32 1.22 1.22 0 0 0 .29-.67 1 1 0 0 0 -.11-.67.81.81 0 0 0 -.46-.32 2.48 2.48 0 0 0 -.63-.07z" fill-rule="evenodd"/><path d="m227.55 42.12.88-6.59h4.01l-.11.83h-3.17l-.26 1.97h2.95l-.11.84h-2.95l-.29 2.11h3.34l-.11.84z" fill-rule="evenodd"/><path d="m232.5 41.37.78-.63a1.21 1.21 0 0 0 .52.53 1.41 1.41 0 0 0 .71.17 1.54 1.54 0 0 0 .58-.12 1.46 1.46 0 0 0 .52-.37 1.12 1.12 0 0 0 .28-.61.71.71 0 0 0 -.23-.66 2.06 2.06 0 0 0 -.71-.36 7.81 7.81 0 0 1 -.87-.34 1.54 1.54 0 0 1 -.67-.62 1.74 1.74 0 0 1 -.17-1.17 2 2 0 0 1 .32-.82 2.47 2.47 0 0 1 .78-.72 2.65 2.65 0 0 1 1.25-.3 2.48 2.48 0 0 1 1 .15 1.57 1.57 0 0 1 .74.6l-.78.67a.88.88 0 0 0 -.39-.42 1.19 1.19 0 0 0 -.64-.16 1.49 1.49 0 0 0 -.75.17 1.09 1.09 0 0 0 -.59.83.79.79 0 0 0 .22.73 1.92 1.92 0 0 0 .71.38c.29.1.58.2.87.32a1.61 1.61 0 0 1 .69.55 1.52 1.52 0 0 1 .17 1.07 2.35 2.35 0 0 1 -.44 1.1 2.39 2.39 0 0 1 -.87.7 2.62 2.62 0 0 1 -1.12.24 2.65 2.65 0 0 1 -1.11-.22 1.64 1.64 0 0 1 -.8-.69z" fill-rule="evenodd"/><path d="m239.55 28.8v.61h.45a.68.68 0 0 0 .33-.05.29.29 0 0 0 .14-.26.26.26 0 0 0 -.15-.25.66.66 0 0 0 -.32-.05zm.93 1.7-.57-.86h-.36v.86h-.26v-1.93h.78a.71.71 0 0 1 .48.13.54.54 0 0 1 .15.4.51.51 0 0 1 -.14.38.66.66 0 0 1 -.35.16l.59.86zm-1.94-1a1.35 1.35 0 0 0 .19.69 1.38 1.38 0 0 0 .5.49 1.45 1.45 0 0 0 .69.19 1.5 1.5 0 0 0 .71-.19 1.47 1.47 0 0 0 .5-.49 1.34 1.34 0 0 0 .18-.69 1.31 1.31 0 0 0 -.18-.69 1.39 1.39 0 0 0 -1.21-.69 1.45 1.45 0 0 0 -.69.19 1.41 1.41 0 0 0 -.5.5 1.32 1.32 0 0 0 -.19.73zm-.26 0a1.56 1.56 0 0 1 .23-.82 1.61 1.61 0 0 1 .58-.58 1.69 1.69 0 0 1 1.67 0 1.64 1.64 0 0 1 .59.58 1.66 1.66 0 0 1 0 1.65 1.64 1.64 0 0 1 -.59.58 1.69 1.69 0 0 1 -1.67 0 1.61 1.61 0 0 1 -.58-.58 1.57 1.57 0 0 1 -.23-.8z" fill-rule="evenodd"/><path d="m100.48 31.15h-15.48a5.84 5.84 0 0 1 -2.79-.73 5.94 5.94 0 0 1 -2.14-2 5.55 5.55 0 0 1 -.86-3v-6.56c0-2.49.54-4.32 1.64-5.46a6.58 6.58 0 0 1 5-1.7h14.65v4.86h-16.76v9.72h16.74z" fill-rule="evenodd"/><path d="m173.65 31.3h-14.76a6.28 6.28 0 0 1 -3-.8 6 6 0 0 1 -2.26-2.19 6.31 6.31 0 0 1 -.89-3.29v-7.08a6.88 6.88 0 0 1 .83-3.45 5.34 5.34 0 0 1 2.23-2.09 7 7 0 0 1 3.18-.71h14.72v5h-16.53v2.31h16.48v5l-16.36.05v2.07h16.36z" fill-rule="evenodd"/><path d="m199.67 11.7-7.51 15.76a9.27 9.27 0 0 1 -1.81 2.69 3.95 3.95 0 0 1 -5 .5 6.19 6.19 0 0 1 -1.65-1.65 16.56 16.56 0 0 1 -1.21-2.19l-7.1-15.09h5.12l7 14.59 7.13-14.58z" fill-rule="evenodd"/><path d="m237.34 31.17h-13.57a5 5 0 0 1 -2.71-.85 6.14 6.14 0 0 1 -2-2.18 6 6 0 0 1 -.78-3v-13.5h4.6v14.43h14.45z" fill-rule="evenodd"/><path d="m217.92 31.18h-4.86l-2.64-5.11h-8.72l-2.44 5.11h-5l6.84-14.67a19 19 0 0 1 1.2-2.28 6.36 6.36 0 0 1 1.61-1.8 3.73 3.73 0 0 1 2.27-.72 3.44 3.44 0 0 1 2.21.78 6.92 6.92 0 0 1 1.56 1.89c.43.75.82 1.5 1.16 2.26zm-9.77-10.1-2.07-4.08-2.08 4.08z" fill-rule="evenodd"/><path d="m150.3 17.78a6.35 6.35 0 0 1 -.8 3.1 6.19 6.19 0 0 1 -2.09 2.22 5.2 5.2 0 0 1 -2.85.85h-11.56v7.23h-4.7v-19.48h15.7a6.49 6.49 0 0 1 3 .76 6.26 6.26 0 0 1 2.32 2.11 5.8 5.8 0 0 1 .98 3.21zm-4.67 1.34v-2.46h-12.63v2.46z" fill-rule="evenodd"/><path d="m125.68 25.1a5.94 5.94 0 0 1 -.79 3 5.82 5.82 0 0 1 -2 2.11 5.25 5.25 0 0 1 -2.76.8h-11.7a5.3 5.3 0 0 1 -4-1.75 6.54 6.54 0 0 1 -1.58-4.45v-7.37a5.28 5.28 0 0 1 1-3.09 6.22 6.22 0 0 1 2.35-2 7 7 0 0 1 2.93-.69h11.13a4.92 4.92 0 0 1 2.77.88 6.25 6.25 0 0 1 2 2.26 6.47 6.47 0 0 1 .75 3.06zm-4.61 1v-9.36h-13.73v9.38z" fill-rule="evenodd"/><path d="m1.27 21.69c16.98-8.54 41.39-14.09 68.73-14.69v-1.67c-26.36.44-50.33 4.75-68.73 11.6z"/><path d="m1.27 47.09h.21c3.19-19.09 32.3-34.25 68.52-35.42v-2.32c-29.17.73-54.47 8.49-68.73 19.83z"/><path d="m13.78 47.09h12.29c3-15.77 21.21-28.16 43.93-29.63v-2.91c-29.41 1.3-53 15.07-56.22 32.54z"/><path d="m70 2.45a346.91 346.91 0 0 0 -68.73 7.27v3.43c19.29-5.69 42.99-9.15 68.73-9.56z"/></g></svg>